Renner-100-HairlineItalic.ufo
<glyph name="ampersand" format="1">
  <advance width="675"/>
  <unicode hex="0026"/>
  <outline>
    <contour>
      <point x="71" y="173" type="curve"/>
      <point x="81" y="173" type="line"/>
      <point x="61" y="60"/>
      <point x="135" y="0"/>
      <point x="245" y="0" type="curve" smooth="yes"/>
      <point x="416" y="0"/>
      <point x="532" y="175"/>
      <point x="659" y="316" type="curve"/>
      <point x="666" y="311" type="line"/>
      <point x="538" y="171"/>
      <point x="422" y="-10"/>
      <point x="243" y="-10" type="curve" smooth="yes"/>
      <point x="128" y="-10"/>
      <point x="50" y="54"/>
    </contour>
    <contour>
      <point x="219" y="576" type="line"/>
      <point x="232" y="650"/>
      <point x="293" y="711"/>
      <point x="393" y="711" type="curve" smooth="yes"/>
      <point x="488" y="711"/>
      <point x="518" y="638"/>
      <point x="507" y="574" type="curve"/>
      <point x="497" y="574" type="line"/>
      <point x="507" y="630"/>
      <point x="482" y="701"/>
      <point x="392" y="701" type="curve" smooth="yes"/>
      <point x="297" y="701"/>
      <point x="241" y="642"/>
      <point x="229" y="576" type="curve"/>
    </contour>
    <contour>
      <point x="258" y="427" type="line" smooth="yes"/>
      <point x="232" y="465"/>
      <point x="206" y="504"/>
      <point x="219" y="576" type="curve"/>
      <point x="229" y="576" type="line"/>
      <point x="217" y="506"/>
      <point x="243" y="469"/>
      <point x="267" y="435" type="curve" smooth="yes"/>
      <point x="571" y="0" type="line"/>
      <point x="558" y="0" type="line"/>
    </contour>
    <contour>
      <point x="507" y="574" type="line"/>
      <point x="495" y="507"/>
      <point x="435" y="457"/>
      <point x="332" y="400" type="curve" smooth="yes"/>
      <point x="252" y="356"/>
      <point x="106" y="313"/>
      <point x="81" y="173" type="curve"/>
      <point x="71" y="173" type="line"/>
      <point x="97" y="320"/>
      <point x="252" y="367"/>
      <point x="326" y="407" type="curve" smooth="yes"/>
      <point x="424" y="460"/>
      <point x="486" y="513"/>
      <point x="497" y="574" type="curve"/>
    </contour>
  </outline>
</glyph>
<glyph name="quotesingle" format="1">
  <advance width="223"/>
  <unicode hex="0027"/>
  <outline>
    <contour>
      <point x="263" y="700" type="line"/>
      <point x="276" y="700" type="line"/>
      <point x="171" y="420" type="line"/>
      <point x="164" y="420" type="line"/>
    </contour>
  </outline>
</glyph>
<glyph name="parenleft" format="1">
  <advance width="240"/>
  <unicode hex="0028"/>
  <outline>
    <contour>
      <point x="343" y="780" type="curve"/>
      <point x="348" y="780" type="line"/>
      <point x="245" y="620"/>
      <point x="181" y="460"/>
      <point x="151" y="290" type="curve" smooth="yes"/>
      <point x="121" y="120"/>
      <point x="128" y="-40"/>
      <point x="175" y="-200" type="curve"/>
      <point x="170" y="-200" type="line"/>
      <point x="116" y="-50"/>
      <point x="111" y="120"/>
      <point x="141" y="290" type="curve" smooth="yes"/>
      <point x="171" y="460"/>
      <point x="237" y="630"/>
    </contour>
  </outline>
</glyph>
<glyph name="comma" format="1">
  <advance width="276"/>
  <unicode hex="002C"/>
  <outline>
    <contour>
      <point x="192" y="94" type="line"/>
      <point x="202" y="89" type="line"/>
      <point x="48" y="-161" type="line"/>
      <point x="42" y="-159" type="line"/>
    </contour>
  </outline>
</glyph>
<glyph name="period" format="1">
  <advance width="260"/>
  <unicode hex="002E"/>
  <outline>
    <contour>
      <point x="119" y="1" type="curve" smooth="yes"/>
      <point x="120" y="8"/>
      <point x="126" y="12"/>
      <point x="132" y="12" type="curve" smooth="yes"/>
      <point x="138" y="12"/>
      <point x="142" y="8"/>
      <point x="141" y="1" type="curve" smooth="yes"/>
      <point x="140" y="-6"/>
      <point x="134" y="-10"/>
      <point x="128" y="-10" type="curve" smooth="yes"/>
      <point x="122" y="-10"/>
      <point x="118" y="-6"/>
    </contour>
  </outline>
</glyph>
<glyph name="six" format="1">
  <advance width="536"/>
  <unicode hex="0036"/>
  <outline>
    <contour>
      <point x="99" y="220" type="curve" smooth="yes"/>
      <point x="77" y="94"/>
      <point x="143" y="0"/>
      <point x="268" y="0" type="curve" smooth="yes"/>
      <point x="393" y="0"/>
      <point x="493" y="94"/>
      <point x="515" y="220" type="curve" smooth="yes"/>
      <point x="535" y="336"/>
      <point x="459" y="427"/>
      <point x="354" y="427" type="curve" smooth="yes"/>
      <point x="214" y="427"/>
      <point x="118" y="326"/>
    </contour>
    <contour>
      <point x="453" y="700" type="line"/>
      <point x="465" y="700" type="line"/>
      <point x="163" y="355" type="line"/>
      <point x="163" y="355" type="line"/>
      <point x="214" y="407"/>
      <point x="281" y="437"/>
      <point x="356" y="437" type="curve" smooth="yes"/>
      <point x="470" y="437"/>
      <point x="546" y="339"/>
      <point x="525" y="220" type="curve" smooth="yes"/>
      <point x="501" y="86"/>
      <point x="401" y="-10"/>
      <point x="266" y="-10" type="curve" smooth="yes"/>
      <point x="131" y="-10"/>
      <point x="65" y="86"/>
      <point x="89" y="220" type="curve" smooth="yes"/>
      <point x="99" y="277"/>
      <point x="139" y="342"/>
      <point x="173" y="379" type="curve" smooth="yes"/>
    </contour>
  </outline>
</glyph>
<glyph name="seven" format="1">
  <advance width="515"/>
  <unicode hex="0037"/>
  <outline>
    <contour>
      <point x="157" y="690" type="line"/>
      <point x="158" y="700" type="line"/>
      <point x="628" y="700" type="line"/>
      <point x="135" y="0" type="line"/>
      <point x="124" y="0" type="line"/>
      <point x="611" y="690" type="line"/>
    </contour>
  </outline>
</glyph>
<glyph name="eight" format="1">
  <advance width="516"/>
  <unicode hex="0038"/>
  <outline>
    <contour>
      <point x="180" y="541" type="curve" smooth="yes"/>
      <point x="196" y="630"/>
      <point x="283" y="710"/>
      <point x="383" y="710" type="curve" smooth="yes"/>
      <point x="483" y="710"/>
      <point x="542" y="630"/>
      <point x="526" y="541" type="curve" smooth="yes"/>
      <point x="509" y="442"/>
      <point x="408" y="368"/>
      <point x="323" y="368" type="curve" smooth="yes"/>
      <point x="238" y="368"/>
      <point x="163" y="442"/>
    </contour>
    <contour>
      <point x="190" y="541" type="curve" smooth="yes"/>
      <point x="173" y="445"/>
      <point x="254" y="375"/>
      <point x="324" y="375" type="curve" smooth="yes"/>
      <point x="394" y="375"/>
      <point x="499" y="445"/>
      <point x="516" y="541" type="curve" smooth="yes"/>
      <point x="531" y="627"/>
      <point x="476" y="700"/>
      <point x="381" y="700" type="curve" smooth="yes"/>
      <point x="286" y="700"/>
      <point x="205" y="627"/>
    </contour>
    <contour>
      <point x="98" y="185" type="curve" smooth="yes"/>
      <point x="117" y="294"/>
      <point x="224" y="372"/>
      <point x="324" y="372" type="curve" smooth="yes"/>
      <point x="424" y="372"/>
      <point x="503" y="294"/>
      <point x="484" y="185" type="curve" smooth="yes"/>
      <point x="465" y="76"/>
      <point x="381" y="-10"/>
      <point x="256" y="-10" type="curve" smooth="yes"/>
      <point x="131" y="-10"/>
      <point x="79" y="76"/>
    </contour>
    <contour>
      <point x="108" y="185" type="curve" smooth="yes"/>
      <point x="89" y="79"/>
      <point x="143" y="0"/>
      <point x="258" y="0" type="curve" smooth="yes"/>
      <point x="373" y="0"/>
      <point x="455" y="79"/>
      <point x="474" y="185" type="curve" smooth="yes"/>
      <point x="493" y="291"/>
      <point x="412" y="365"/>
      <point x="322" y="365" type="curve" smooth="yes"/>
      <point x="232" y="365"/>
      <point x="127" y="291"/>
    </contour>
  </outline>
</glyph>
<glyph name="equal" format="1">
  <advance width="615"/>
  <unicode hex="003D"/>
  <outline>
    <contour>
      <point x="98" y="185" type="line"/>
      <point x="99" y="195" type="line"/>
      <point x="584" y="195" type="line"/>
      <point x="583" y="185" type="line"/>
    </contour>
    <contour>
      <point x="120" y="310" type="line"/>
      <point x="121" y="320" type="line"/>
      <point x="606" y="320" type="line"/>
      <point x="605" y="310" type="line"/>
    </contour>
  </outline>
</glyph>
<glyph name="B" format="1">
  <advance width="495"/>
  <unicode hex="0042"/>
  <outline>
    <contour>
      <point x="166" y="392" type="line"/>
      <point x="289" y="392" type="line" smooth="yes"/>
      <point x="374" y="392"/>
      <point x="493" y="329"/>
      <point x="470" y="200" type="curve" smooth="yes"/>
      <point x="445" y="61"/>
      <point x="345" y="0"/>
      <point x="210" y="0" type="curve" smooth="yes"/>
      <point x="97" y="0" type="line"/>
      <point x="99" y="11" type="line"/>
      <point x="212" y="11" type="line" smooth="yes"/>
      <point x="342" y="11"/>
      <point x="436" y="69"/>
      <point x="459" y="200" type="curve" smooth="yes"/>
      <point x="479" y="316"/>
      <point x="378" y="384"/>
      <point x="278" y="384" type="curve" smooth="yes"/>
      <point x="165" y="384" type="line"/>
    </contour>
    <contour>
      <point x="165" y="386" type="line"/>
      <point x="166" y="394" type="line"/>
      <point x="269" y="394" type="line" smooth="yes"/>
      <point x="369" y="394"/>
      <point x="463" y="434"/>
      <point x="482" y="540" type="curve" smooth="yes"/>
      <point x="499" y="634"/>
      <point x="441" y="689"/>
      <point x="321" y="689" type="curve" smooth="yes"/>
      <point x="218" y="689" type="line"/>
      <point x="220" y="700" type="line"/>
      <point x="323" y="700" type="line" smooth="yes"/>
      <point x="448" y="700"/>
      <point x="510" y="639"/>
      <point x="493" y="540" type="curve" smooth="yes"/>
      <point x="474" y="431"/>
      <point x="383" y="386"/>
      <point x="278" y="386" type="curve" smooth="yes"/>
    </contour>
    <contour>
      <point x="213" y="700" type="line"/>
      <point x="223" y="700" type="line"/>
      <point x="100" y="0" type="line"/>
      <point x="90" y="0" type="line"/>
    </contour>
  </outline>
</glyph>
<glyph name="J" format="1">
  <advance width="197"/>
  <unicode hex="004A"/>
  <outline>
    <contour>
      <point x="-155" y="-158" type="line"/>
      <point x="-135" y="-182"/>
      <point x="-100" y="-209"/>
      <point x="-54" y="-209" type="curve" smooth="yes"/>
      <point x="35" y="-209"/>
      <point x="67" y="-166"/>
      <point x="87" y="-50" type="curve" smooth="yes"/>
      <point x="219" y="700" type="line"/>
      <point x="230" y="700" type="line"/>
      <point x="96" y="-60" type="line" smooth="yes"/>
      <point x="77" y="-169"/>
      <point x="39" y="-220"/>
      <point x="-55" y="-220" type="curve" smooth="yes"/>
      <point x="-108" y="-220"/>
      <point x="-152" y="-185"/>
      <point x="-163" y="-165" type="curve"/>
    </contour>
  </outline>
</glyph>
<glyph name="M" format="1">
  <advance width="830"/>
  <unicode hex="004D"/>
  <outline>
    <contour>
      <point x="807" y="675" type="line"/>
      <point x="821" y="715" type="line"/>
      <point x="770" y="0" type="line"/>
      <point x="759" y="0" type="line"/>
    </contour>
    <contour>
      <point x="261" y="715" type="line"/>
      <point x="261" y="675" type="line"/>
      <point x="71" y="0" type="line"/>
      <point x="60" y="0" type="line"/>
    </contour>
    <contour>
      <point x="821" y="715" type="line"/>
      <point x="807" y="675" type="line"/>
      <point x="434" y="105" type="line"/>
      <point x="261" y="675" type="line"/>
      <point x="261" y="715" type="line"/>
      <point x="438" y="131" type="line"/>
    </contour>
  </outline>
</glyph>
<glyph name="P" format="1">
  <advance width="480"/>
  <unicode hex="0050"/>
  <outline>
    <contour>
      <point x="213" y="700" type="line"/>
      <point x="224" y="700" type="line"/>
      <point x="101" y="0" type="line"/>
      <point x="90" y="0" type="line"/>
    </contour>
    <contour>
      <point x="219" y="690" type="line"/>
      <point x="220" y="700" type="line"/>
      <point x="338" y="700" type="line" smooth="yes"/>
      <point x="463" y="700"/>
      <point x="541" y="626"/>
      <point x="518" y="497" type="curve" smooth="yes"/>
      <point x="495" y="368"/>
      <point x="392" y="294"/>
      <point x="267" y="294" type="curve" smooth="yes"/>
      <point x="149" y="294" type="line"/>
      <point x="151" y="304" type="line"/>
      <point x="269" y="304" type="line" smooth="yes"/>
      <point x="389" y="304"/>
      <point x="485" y="374"/>
      <point x="507" y="497" type="curve" smooth="yes"/>
      <point x="529" y="620"/>
      <point x="457" y="690"/>
      <point x="337" y="690" type="curve" smooth="yes"/>
    </contour>
  </outline>
</glyph>
<glyph name="Q" format="1">
  <advance width="771"/>
  <unicode hex="0051"/>
  <outline>
    <contour>
      <point x="123" y="350" type="curve" smooth="yes"/>
      <point x="88" y="149"/>
      <point x="197" y="3"/>
      <point x="388" y="3" type="curve" smooth="yes"/>
      <point x="579" y="3"/>
      <point x="740" y="149"/>
      <point x="775" y="350" type="curve" smooth="yes"/>
      <point x="810" y="551"/>
      <point x="701" y="697"/>
      <point x="510" y="697" type="curve" smooth="yes"/>
      <point x="319" y="697"/>
      <point x="158" y="551"/>
    </contour>
    <contour>
      <point x="112" y="350" type="curve" smooth="yes"/>
      <point x="149" y="559"/>
      <point x="318" y="708"/>
      <point x="512" y="708" type="curve" smooth="yes"/>
      <point x="706" y="708"/>
      <point x="823" y="559"/>
      <point x="786" y="350" type="curve" smooth="yes"/>
      <point x="749" y="141"/>
      <point x="580" y="-8"/>
      <point x="386" y="-8" type="curve" smooth="yes"/>
      <point x="192" y="-8"/>
      <point x="75" y="141"/>
    </contour>
    <contour>
      <point x="453" y="300" type="line"/>
      <point x="469" y="300" type="line"/>
      <point x="736" y="0" type="line"/>
      <point x="720" y="0" type="line"/>
    </contour>
  </outline>
</glyph>
<glyph name="X" format="1">
  <advance width="500"/>
  <unicode hex="0058"/>
  <outline>
    <contour>
      <point x="574" y="700" type="line"/>
      <point x="588" y="700" type="line"/>
      <point x="324" y="367" type="line"/>
      <point x="480" y="0" type="line"/>
      <point x="466" y="0" type="line"/>
      <point x="315" y="356" type="line"/>
      <point x="34" y="0" type="line"/>
      <point x="20" y="0" type="line"/>
      <point x="311" y="367" type="line"/>
      <point x="168" y="700" type="line"/>
      <point x="182" y="700" type="line"/>
      <point x="319" y="377" type="line"/>
    </contour>
  </outline>
</glyph>
<glyph name="underscore" format="1">
  <advance width="500"/>
  <unicode hex="005F"/>
  <outline>
    <contour>
      <point x="-19" y="-109" type="line"/>
      <point x="-17" y="-98" type="line"/>
      <point x="483" y="-98" type="line"/>
      <point x="481" y="-109" type="line"/>
    </contour>
  </outline>
</glyph>
<glyph name="c" format="1">
  <advance width="488"/>
  <unicode hex="0063"/>
  <outline>
    <contour>
      <point x="91" y="230" type="curve" smooth="yes"/>
      <point x="67" y="96"/>
      <point x="148" y="0"/>
      <point x="273" y="0" type="curve" smooth="yes"/>
      <point x="347" y="0"/>
      <point x="414" y="37"/>
      <point x="439" y="61" type="curve"/>
      <point x="436" y="48" type="line"/>
      <point x="410" y="23"/>
      <point x="344" y="-10"/>
      <point x="271" y="-10" type="curve" smooth="yes"/>
      <point x="139" y="-10"/>
      <point x="56" y="91"/>
      <point x="81" y="230" type="curve" smooth="yes"/>
      <point x="106" y="369"/>
      <point x="224" y="470"/>
      <point x="356" y="470" type="curve" smooth="yes"/>
      <point x="429" y="470"/>
      <point x="483" y="436"/>
      <point x="501" y="412" type="curve"/>
      <point x="498" y="399" type="line"/>
      <point x="481" y="423"/>
      <point x="428" y="460"/>
      <point x="354" y="460" type="curve" smooth="yes"/>
      <point x="229" y="460"/>
      <point x="115" y="364"/>
    </contour>
  </outline>
</glyph>
<glyph name="g" format="1">
  <advance width="541"/>
  <unicode hex="0067"/>
  <outline>
    <contour>
      <point x="55" y="-30" type="curve"/>
      <point x="65" y="-30" type="line"/>
      <point x="45" y="-146"/>
      <point x="106" y="-220"/>
      <point x="213" y="-220" type="curve" smooth="yes"/>
      <point x="320" y="-220"/>
      <point x="426" y="-145"/>
      <point x="453" y="10" type="curve" smooth="yes"/>
      <point x="532" y="460" type="line"/>
      <point x="542" y="460" type="line"/>
      <point x="463" y="10" type="line" smooth="yes"/>
      <point x="435" y="-149"/>
      <point x="326" y="-230"/>
      <point x="211" y="-230" type="curve" smooth="yes"/>
      <point x="96" y="-230"/>
      <point x="34" y="-149"/>
    </contour>
    <contour>
      <point x="86" y="230" type="curve" smooth="yes"/>
      <point x="112" y="377"/>
      <point x="221" y="470"/>
      <point x="341" y="470" type="curve" smooth="yes"/>
      <point x="464" y="470"/>
      <point x="518" y="349"/>
      <point x="497" y="230" type="curve" smooth="yes"/>
      <point x="476" y="111"/>
      <point x="379" y="-10"/>
      <point x="256" y="-10" type="curve" smooth="yes"/>
      <point x="136" y="-10"/>
      <point x="60" y="83"/>
    </contour>
    <contour>
      <point x="96" y="230" type="curve" smooth="yes"/>
      <point x="71" y="89"/>
      <point x="145" y="0"/>
      <point x="261" y="0" type="curve" smooth="yes"/>
      <point x="371" y="0"/>
      <point x="471" y="114"/>
      <point x="492" y="235" type="curve" smooth="yes"/>
      <point x="511" y="341"/>
      <point x="452" y="460"/>
      <point x="342" y="460" type="curve" smooth="yes"/>
      <point x="226" y="460"/>
      <point x="121" y="371"/>
    </contour>
  </outline>
</glyph>
<glyph name="t" format="1">
  <advance width="190"/>
  <unicode hex="0074"/>
  <outline>
    <contour>
      <point x="96" y="460" type="line"/>
      <point x="256" y="460" type="line"/>
      <point x="254" y="450" type="line"/>
      <point x="94" y="450" type="line"/>
    </contour>
    <contour>
      <point x="199" y="620" type="line"/>
      <point x="209" y="620" type="line"/>
      <point x="100" y="0" type="line"/>
      <point x="90" y="0" type="line"/>
    </contour>
  </outline>
</glyph>
<glyph name="x" format="1">
  <advance width="380"/>
  <unicode hex="0078"/>
  <outline>
    <contour>
      <point x="426" y="460" type="line"/>
      <point x="440" y="460" type="line"/>
      <point x="239" y="237" type="line"/>
      <point x="370" y="0" type="line"/>
      <point x="355" y="0" type="line"/>
      <point x="230" y="229" type="line"/>
      <point x="25" y="0" type="line"/>
      <point x="10" y="0" type="line"/>
      <point x="225" y="237" type="line"/>
      <point x="101" y="460" type="line"/>
      <point x="116" y="460" type="line"/>
      <point x="233" y="245" type="line"/>
    </contour>
  </outline>
</glyph>
<glyph name="y" format="1">
  <advance width="425"/>
  <unicode hex="0079"/>
  <outline>
    <contour>
      <point x="496" y="460" type="line"/>
      <point x="76" y="-220" type="line"/>
      <point x="65" y="-220" type="line"/>
      <point x="214" y="20" type="line"/>
      <point x="91" y="460" type="line"/>
      <point x="103" y="460" type="line"/>
      <point x="225" y="20" type="line"/>
      <point x="214" y="20" type="line"/>
      <point x="485" y="460" type="line"/>
    </contour>
  </outline>
</glyph>
<glyph name="dieresis" format="1">
  <advance width="422"/>
  <unicode hex="00A8"/>
  <outline>
    <contour>
      <point x="421" y="689" type="curve" smooth="yes"/>
      <point x="422" y="696"/>
      <point x="428" y="700"/>
      <point x="434" y="700" type="curve" smooth="yes"/>
      <point x="440" y="700"/>
      <point x="444" y="696"/>
      <point x="443" y="689" type="curve" smooth="yes"/>
      <point x="442" y="682"/>
      <point x="437" y="678"/>
      <point x="431" y="678" type="curve" smooth="yes"/>
      <point x="425" y="678"/>
      <point x="420" y="682"/>
    </contour>
    <contour>
      <point x="221" y="689" type="curve" smooth="yes"/>
      <point x="222" y="696"/>
      <point x="228" y="700"/>
      <point x="234" y="700" type="curve" smooth="yes"/>
      <point x="240" y="700"/>
      <point x="244" y="696"/>
      <point x="243" y="689" type="curve" smooth="yes"/>
      <point x="242" y="682"/>
      <point x="237" y="678"/>
      <point x="231" y="678" type="curve" smooth="yes"/>
      <point x="225" y="678"/>
      <point x="220" y="682"/>
    </contour>
  </outline>
</glyph>
<glyph name="uni00B3" format="1">
  <advance width="308"/>
  <unicode hex="00B3"/>
  <outline>
    <contour>
      <point x="228" y="497" type="curve"/>
      <point x="229" y="502" type="line"/>
      <point x="283" y="502"/>
      <point x="360" y="538"/>
      <point x="371" y="600" type="curve" smooth="yes"/>
      <point x="380" y="650"/>
      <point x="351" y="700"/>
      <point x="284" y="700" type="curve" smooth="yes"/>
      <point x="219" y="700"/>
      <point x="170" y="657"/>
      <point x="159" y="596" type="curve"/>
      <point x="153" y="596" type="line"/>
      <point x="164" y="661"/>
      <point x="216" y="706"/>
      <point x="285" y="706" type="curve" smooth="yes"/>
      <point x="357" y="706"/>
      <point x="386" y="653"/>
      <point x="377" y="600" type="curve" smooth="yes"/>
      <point x="366" y="535"/>
      <point x="291" y="497"/>
    </contour>
    <contour>
      <point x="206" y="274" type="curve" smooth="yes"/>
      <point x="125" y="274"/>
      <point x="88" y="326"/>
      <point x="99" y="391" type="curve"/>
      <point x="105" y="391" type="line"/>
      <point x="94" y="327"/>
      <point x="129" y="280"/>
      <point x="207" y="280" type="curve" smooth="yes"/>
      <point x="279" y="280"/>
      <point x="334" y="324"/>
      <point x="345" y="385" type="curve" smooth="yes"/>
      <point x="358" y="460"/>
      <point x="281" y="496"/>
      <point x="227" y="496" type="curve"/>
      <point x="228" y="501" type="line"/>
      <point x="291" y="501"/>
      <point x="365" y="462"/>
      <point x="351" y="385" type="curve" smooth="yes"/>
      <point x="340" y="320"/>
      <point x="281" y="274"/>
    </contour>
  </outline>
</glyph>
<glyph name="acute" format="1">
  <advance width="353"/>
  <unicode hex="00B4"/>
  <outline>
    <contour>
      <point x="375" y="692" type="line"/>
      <point x="174" y="535" type="line"/>
      <point x="170" y="540" type="line"/>
      <point x="368" y="700" type="line"/>
    </contour>
  </outline>
</glyph>
<glyph name="threequarters" format="1">
  <advance width="820"/>
  <unicode hex="00BE"/>
  <outline>
    <contour>
      <point x="861" y="700" type="line"/>
      <point x="873" y="700" type="line"/>
      <point x="177" y="0" type="line"/>
      <point x="165" y="0" type="line"/>
    </contour>
    <contour>
      <point x="233" y="497" type="curve"/>
      <point x="234" y="502" type="line"/>
      <point x="288" y="502"/>
      <point x="365" y="538"/>
      <point x="376" y="600" type="curve" smooth="yes"/>
      <point x="385" y="650"/>
      <point x="356" y="700"/>
      <point x="289" y="700" type="curve" smooth="yes"/>
      <point x="224" y="700"/>
      <point x="175" y="657"/>
      <point x="164" y="596" type="curve"/>
      <point x="158" y="596" type="line"/>
      <point x="169" y="661"/>
      <point x="221" y="706"/>
      <point x="290" y="706" type="curve" smooth="yes"/>
      <point x="362" y="706"/>
      <point x="391" y="653"/>
      <point x="382" y="600" type="curve" smooth="yes"/>
      <point x="371" y="535"/>
      <point x="296" y="497"/>
    </contour>
    <contour>
      <point x="211" y="274" type="curve" smooth="yes"/>
      <point x="130" y="274"/>
      <point x="93" y="326"/>
      <point x="104" y="391" type="curve"/>
      <point x="110" y="391" type="line"/>
      <point x="99" y="327"/>
      <point x="134" y="280"/>
      <point x="212" y="280" type="curve" smooth="yes"/>
      <point x="284" y="280"/>
      <point x="339" y="324"/>
      <point x="350" y="385" type="curve" smooth="yes"/>
      <point x="363" y="460"/>
      <point x="286" y="496"/>
      <point x="232" y="496" type="curve"/>
      <point x="233" y="501" type="line"/>
      <point x="296" y="501"/>
      <point x="370" y="462"/>
      <point x="356" y="385" type="curve" smooth="yes"/>
      <point x="345" y="320"/>
      <point x="286" y="274"/>
    </contour>
    <contour>
      <point x="483" y="84" type="line"/>
      <point x="490" y="90" type="line"/>
      <point x="710" y="90" type="line" smooth="yes"/>
      <point x="712" y="90" type="line" smooth="yes"/>
      <point x="780" y="90" type="line"/>
      <point x="779" y="84" type="line"/>
    </contour>
    <contour>
      <point x="490" y="84" type="line"/>
      <point x="483" y="84" type="line"/>
      <point x="772" y="420" type="line"/>
      <point x="772" y="420" type="line"/>
      <point x="698" y="0" type="line"/>
      <point x="692" y="0" type="line"/>
      <point x="707" y="85" type="line" smooth="yes"/>
      <point x="708" y="88" type="line" smooth="yes"/>
      <point x="763" y="400" type="line"/>
    </contour>
  </outline>
</glyph>
<glyph name="questiondown" format="1">
  <advance width="542"/>
  <unicode hex="00BF"/>
  <outline>
    <contour>
      <point x="451" y="699" type="curve" smooth="yes"/>
      <point x="450" y="692"/>
      <point x="444" y="688"/>
      <point x="438" y="688" type="curve" smooth="yes"/>
      <point x="432" y="688"/>
      <point x="428" y="692"/>
      <point x="429" y="699" type="curve" smooth="yes"/>
      <point x="430" y="706"/>
      <point x="436" y="710"/>
      <point x="442" y="710" type="curve" smooth="yes"/>
      <point x="448" y="710"/>
      <point x="452" y="706"/>
    </contour>
    <contour>
      <point x="383" y="355" type="line"/>
      <point x="371" y="355" type="line"/>
      <point x="400" y="530" type="line"/>
      <point x="408" y="530" type="line"/>
    </contour>
    <contour>
      <point x="122" y="180" type="curve" smooth="yes"/>
      <point x="104" y="79"/>
      <point x="158" y="0"/>
      <point x="278" y="0" type="curve" smooth="yes"/>
      <point x="370" y="0"/>
      <point x="432" y="44"/>
      <point x="488" y="113" type="curve"/>
      <point x="496" y="107" type="line"/>
      <point x="438" y="37"/>
      <point x="375" y="-10"/>
      <point x="276" y="-10" type="curve" smooth="yes"/>
      <point x="151" y="-10"/>
      <point x="93" y="71"/>
      <point x="112" y="180" type="curve" smooth="yes"/>
      <point x="129" y="279"/>
      <point x="246" y="363"/>
      <point x="376" y="363" type="curve"/>
      <point x="383" y="355" type="line"/>
      <point x="253" y="355"/>
      <point x="139" y="276"/>
    </contour>
  </outline>
</glyph>
<glyph name="Agrave" format="1">
  <advance width="600"/>
  <unicode hex="00C0"/>
  <outline>
    <contour>
      <point x="175" y="272" type="line"/>
      <point x="177" y="282" type="line"/>
      <point x="522" y="282" type="line"/>
      <point x="520" y="272" type="line"/>
    </contour>
    <contour>
      <point x="421" y="688" type="line"/>
      <point x="185" y="277" type="line"/>
      <point x="183" y="273" type="line"/>
      <point x="27" y="0" type="line"/>
      <point x="15" y="0" type="line"/>
      <point x="426" y="715" type="line"/>
      <point x="585" y="0" type="line"/>
      <point x="573" y="0" type="line"/>
      <point x="514" y="273" type="line"/>
      <point x="514" y="276" type="line"/>
    </contour>
    <contour>
      <point x="328" y="932" type="line"/>
      <point x="338" y="940" type="line"/>
      <point x="480" y="780" type="line"/>
      <point x="475" y="775" type="line"/>
    </contour>
  </outline>
</glyph>
<glyph name="Aacute" format="1">
  <advance width="600"/>
  <unicode hex="00C1"/>
  <outline>
    <contour>
      <point x="175" y="272" type="line"/>
      <point x="177" y="282" type="line"/>
      <point x="522" y="282" type="line"/>
      <point x="520" y="272" type="line"/>
    </contour>
    <contour>
      <point x="421" y="688" type="line"/>
      <point x="185" y="277" type="line"/>
      <point x="183" y="273" type="line"/>
      <point x="27" y="0" type="line"/>
      <point x="15" y="0" type="line"/>
      <point x="426" y="715" type="line"/>
      <point x="585" y="0" type="line"/>
      <point x="573" y="0" type="line"/>
      <point x="514" y="273" type="line"/>
      <point x="514" y="276" type="line"/>
    </contour>
    <contour>
      <point x="600" y="932" type="line"/>
      <point x="399" y="775" type="line"/>
      <point x="396" y="780" type="line"/>
      <point x="594" y="940" type="line"/>
    </contour>
  </outline>
</glyph>
<glyph name="AE" format="1">
  <advance width="896"/>
  <unicode hex="00C6"/>
  <outline>
    <contour>
      <point x="256" y="280" type="line"/>
      <point x="258" y="290" type="line"/>
      <point x="548" y="290" type="line"/>
      <point x="546" y="280" type="line"/>
    </contour>
    <contour>
      <point x="608" y="700" type="line"/>
      <point x="621" y="700" type="line"/>
      <point x="18" y="0" type="line"/>
      <point x="5" y="0" type="line"/>
    </contour>
    <contour>
      <point x="497" y="0" type="line"/>
      <point x="499" y="10" type="line"/>
      <point x="818" y="10" type="line"/>
      <point x="816" y="0" type="line"/>
    </contour>
    <contour>
      <point x="622" y="690" type="line"/>
      <point x="608" y="700" type="line"/>
      <point x="939" y="700" type="line"/>
      <point x="938" y="690" type="line"/>
    </contour>
    <contour>
      <point x="565" y="384" type="line"/>
      <point x="566" y="394" type="line"/>
      <point x="865" y="394" type="line"/>
      <point x="864" y="384" type="line"/>
    </contour>
    <contour>
      <point x="613" y="700" type="line"/>
      <point x="624" y="700" type="line"/>
      <point x="501" y="0" type="line"/>
      <point x="490" y="0" type="line"/>
    </contour>
  </outline>
</glyph>
<glyph name="Ccedilla" format="1">
  <advance width="685"/>
  <unicode hex="00C7"/>
  <outline>
    <contour>
      <point x="124" y="350" type="curve" smooth="yes"/>
      <point x="89" y="150"/>
      <point x="194" y="4"/>
      <point x="381" y="4" type="curve" smooth="yes"/>
      <point x="480" y="4"/>
      <point x="553" y="31"/>
      <point x="621" y="88" type="curve"/>
      <point x="618" y="72" type="line"/>
      <point x="550" y="20"/>
      <point x="481" y="-8"/>
      <point x="379" y="-8" type="curve" smooth="yes"/>
      <point x="185" y="-8"/>
      <point x="75" y="141"/>
      <point x="112" y="350" type="curve" smooth="yes"/>
      <point x="149" y="559"/>
      <point x="311" y="708"/>
      <point x="505" y="708" type="curve" smooth="yes"/>
      <point x="607" y="708"/>
      <point x="666" y="680"/>
      <point x="716" y="628" type="curve"/>
      <point x="713" y="613" type="line"/>
      <point x="667" y="669"/>
      <point x="597" y="696"/>
      <point x="503" y="696" type="curve" smooth="yes"/>
      <point x="317" y="696"/>
      <point x="160" y="553"/>
    </contour>
    <contour>
      <point x="374" y="-1" type="line"/>
      <point x="386" y="-1" type="line"/>
      <point x="316" y="-77" type="line"/>
      <point x="303" y="-89" type="line"/>
    </contour>
    <contour>
      <point x="451" y="-127" type="curve"/>
      <point x="441" y="-127" type="line"/>
      <point x="449" y="-83"/>
      <point x="418" y="-63"/>
      <point x="389" y="-63" type="curve" smooth="yes"/>
      <point x="359" y="-63"/>
      <point x="329" y="-73"/>
      <point x="303" y="-89" type="curve"/>
      <point x="316" y="-77" type="line"/>
      <point x="345" y="-61"/>
      <point x="358" y="-53"/>
      <point x="391" y="-53" type="curve" smooth="yes"/>
      <point x="424" y="-53"/>
      <point x="460" y="-78"/>
    </contour>
    <contour>
      <point x="451" y="-127" type="line"/>
      <point x="440" y="-188"/>
      <point x="382" y="-221"/>
      <point x="327" y="-221" type="curve" smooth="yes"/>
      <point x="290" y="-221"/>
      <point x="268" y="-211"/>
      <point x="245" y="-183" type="curve"/>
      <point x="253" y="-177" type="line"/>
      <point x="277" y="-201"/>
      <point x="296" y="-211"/>
      <point x="329" y="-211" type="curve" smooth="yes"/>
      <point x="376" y="-211"/>
      <point x="431" y="-183"/>
      <point x="441" y="-127" type="curve"/>
    </contour>
  </outline>
</glyph>
<glyph name="Idieresis" format="1">
  <advance width="180"/>
  <unicode hex="00CF"/>
  <outline>
    <contour>
      <point x="208" y="700" type="line"/>
      <point x="218" y="700" type="line"/>
      <point x="95" y="0" type="line"/>
      <point x="85" y="0" type="line"/>
    </contour>
    <contour>
      <point x="290" y="799" type="curve" smooth="yes"/>
      <point x="291" y="806"/>
      <point x="297" y="810"/>
      <point x="303" y="810" type="curve" smooth="yes"/>
      <point x="309" y="810"/>
      <point x="313" y="806"/>
      <point x="312" y="799" type="curve" smooth="yes"/>
      <point x="311" y="792"/>
      <point x="305" y="788"/>
      <point x="299" y="788" type="curve" smooth="yes"/>
      <point x="293" y="788"/>
      <point x="289" y="792"/>
    </contour>
    <contour>
      <point x="150" y="799" type="curve" smooth="yes"/>
      <point x="151" y="806"/>
      <point x="157" y="810"/>
      <point x="163" y="810" type="curve" smooth="yes"/>
      <point x="169" y="810"/>
      <point x="173" y="806"/>
      <point x="172" y="799" type="curve" smooth="yes"/>
      <point x="171" y="792"/>
      <point x="165" y="788"/>
      <point x="159" y="788" type="curve" smooth="yes"/>
      <point x="153" y="788"/>
      <point x="149" y="792"/>
    </contour>
  </outline>
</glyph>
<glyph name="Ocircumflex" format="1">
  <advance width="774"/>
  <unicode hex="00D4"/>
  <outline>
    <contour>
      <point x="123" y="350" type="curve" smooth="yes"/>
      <point x="88" y="149"/>
      <point x="197" y="3"/>
      <point x="388" y="3" type="curve" smooth="yes"/>
      <point x="579" y="3"/>
      <point x="740" y="149"/>
      <point x="775" y="350" type="curve" smooth="yes"/>
      <point x="810" y="551"/>
      <point x="701" y="697"/>
      <point x="510" y="697" type="curve" smooth="yes"/>
      <point x="319" y="697"/>
      <point x="158" y="551"/>
    </contour>
    <contour>
      <point x="112" y="350" type="curve" smooth="yes"/>
      <point x="149" y="559"/>
      <point x="318" y="708"/>
      <point x="512" y="708" type="curve" smooth="yes"/>
      <point x="706" y="708"/>
      <point x="823" y="559"/>
      <point x="786" y="350" type="curve" smooth="yes"/>
      <point x="749" y="141"/>
      <point x="580" y="-8"/>
      <point x="386" y="-8" type="curve" smooth="yes"/>
      <point x="192" y="-8"/>
      <point x="75" y="141"/>
    </contour>
    <contour>
      <point x="546" y="903" type="line"/>
      <point x="369" y="768" type="line"/>
      <point x="364" y="775" type="line"/>
      <point x="548" y="915" type="line"/>
      <point x="684" y="775" type="line"/>
      <point x="675" y="768" type="line"/>
    </contour>
  </outline>
</glyph>
<glyph name="multiply" format="1">
  <advance width="578"/>
  <unicode hex="00D7"/>
  <outline>
    <contour>
      <point x="96" y="46" type="line"/>
      <point x="90" y="53" type="line"/>
      <point x="328" y="254" type="line"/>
      <point x="160" y="456" type="line"/>
      <point x="169" y="463" type="line"/>
      <point x="335" y="260" type="line"/>
      <point x="573" y="463" type="line"/>
      <point x="578" y="456" type="line"/>
      <point x="340" y="254" type="line"/>
      <point x="506" y="53" type="line"/>
      <point x="498" y="46" type="line"/>
      <point x="333" y="248" type="line"/>
    </contour>
  </outline>
</glyph>
<glyph name="Oslash" format="1">
  <advance width="790"/>
  <unicode hex="00D8"/>
  <outline>
    <contour>
      <point x="123" y="350" type="curve" smooth="yes"/>
      <point x="88" y="149"/>
      <point x="197" y="3"/>
      <point x="388" y="3" type="curve" smooth="yes"/>
      <point x="579" y="3"/>
      <point x="740" y="149"/>
      <point x="775" y="350" type="curve" smooth="yes"/>
      <point x="810" y="551"/>
      <point x="701" y="697"/>
      <point x="510" y="697" type="curve" smooth="yes"/>
      <point x="319" y="697"/>
      <point x="158" y="551"/>
    </contour>
    <contour>
      <point x="112" y="350" type="curve" smooth="yes"/>
      <point x="149" y="559"/>
      <point x="318" y="708"/>
      <point x="512" y="708" type="curve" smooth="yes"/>
      <point x="706" y="708"/>
      <point x="823" y="559"/>
      <point x="786" y="350" type="curve" smooth="yes"/>
      <point x="749" y="141"/>
      <point x="580" y="-8"/>
      <point x="386" y="-8" type="curve" smooth="yes"/>
      <point x="192" y="-8"/>
      <point x="75" y="141"/>
    </contour>
    <contour>
      <point x="841" y="733" type="line"/>
      <point x="851" y="727" type="line"/>
      <point x="68" y="-33" type="line"/>
      <point x="59" y="-27" type="line"/>
    </contour>
  </outline>
</glyph>
<glyph name="icircumflex" format="1">
  <advance width="190"/>
  <unicode hex="00EE"/>
  <outline>
    <contour>
      <point x="171" y="460" type="line"/>
      <point x="181" y="460" type="line"/>
      <point x="100" y="0" type="line"/>
      <point x="90" y="0" type="line"/>
    </contour>
    <contour>
      <point x="212" y="665" type="line"/>
      <point x="35" y="530" type="line"/>
      <point x="30" y="537" type="line"/>
      <point x="214" y="677" type="line"/>
      <point x="350" y="537" type="line"/>
      <point x="341" y="530" type="line"/>
    </contour>
  </outline>
</glyph>
<glyph name="idieresis" format="1">
  <advance width="190"/>
  <unicode hex="00EF"/>
  <outline>
    <contour>
      <point x="171" y="460" type="line"/>
      <point x="181" y="460" type="line"/>
      <point x="100" y="0" type="line"/>
      <point x="90" y="0" type="line"/>
    </contour>
    <contour>
      <point x="259" y="541" type="curve" smooth="yes"/>
      <point x="260" y="548"/>
      <point x="266" y="552"/>
      <point x="272" y="552" type="curve" smooth="yes"/>
      <point x="278" y="552"/>
      <point x="282" y="548"/>
      <point x="281" y="541" type="curve" smooth="yes"/>
      <point x="280" y="534"/>
      <point x="274" y="530"/>
      <point x="268" y="530" type="curve" smooth="yes"/>
      <point x="262" y="530"/>
      <point x="258" y="534"/>
    </contour>
    <contour>
      <point x="99" y="541" type="curve" smooth="yes"/>
      <point x="100" y="548"/>
      <point x="106" y="552"/>
      <point x="112" y="552" type="curve" smooth="yes"/>
      <point x="118" y="552"/>
      <point x="122" y="548"/>
      <point x="121" y="541" type="curve" smooth="yes"/>
      <point x="120" y="534"/>
      <point x="114" y="530"/>
      <point x="108" y="530" type="curve" smooth="yes"/>
      <point x="102" y="530"/>
      <point x="98" y="534"/>
    </contour>
  </outline>
</glyph>
<glyph name="eth" format="1">
  <advance width="536"/>
  <unicode hex="00F0"/>
  <outline>
    <contour>
      <point x="515" y="220" type="curve" smooth="yes"/>
      <point x="534" y="326"/>
      <point x="472" y="427"/>
      <point x="332" y="427" type="curve" smooth="yes"/>
      <point x="228" y="427"/>
      <point x="119" y="336"/>
      <point x="99" y="220" type="curve" smooth="yes"/>
      <point x="77" y="94"/>
      <point x="143" y="0"/>
      <point x="268" y="0" type="curve" smooth="yes"/>
      <point x="398" y="0"/>
      <point x="494" y="101"/>
    </contour>
    <contour>
      <point x="329" y="700" type="line"/>
      <point x="497" y="379" type="line" smooth="yes"/>
      <point x="517" y="342"/>
      <point x="535" y="277"/>
      <point x="525" y="220" type="curve" smooth="yes"/>
      <point x="501" y="86"/>
      <point x="401" y="-10"/>
      <point x="266" y="-10" type="curve" smooth="yes"/>
      <point x="131" y="-10"/>
      <point x="65" y="86"/>
      <point x="89" y="220" type="curve" smooth="yes"/>
      <point x="110" y="339"/>
      <point x="220" y="437"/>
      <point x="334" y="437" type="curve" smooth="yes"/>
      <point x="409" y="437"/>
      <point x="466" y="407"/>
      <point x="499" y="355" type="curve"/>
      <point x="499" y="355" type="line"/>
      <point x="317" y="700" type="line"/>
    </contour>
    <contour>
      <point x="246" y="575" type="line"/>
      <point x="248" y="585" type="line"/>
      <point x="518" y="585" type="line"/>
      <point x="516" y="575" type="line"/>
    </contour>
  </outline>
</glyph>
<glyph name="otilde" format="1">
  <advance width="556"/>
  <unicode hex="00F5"/>
  <outline>
    <contour>
      <point x="86" y="230" type="curve" smooth="yes"/>
      <point x="111" y="369"/>
      <point x="229" y="470"/>
      <point x="361" y="470" type="curve" smooth="yes"/>
      <point x="493" y="470"/>
      <point x="577" y="369"/>
      <point x="552" y="230" type="curve" smooth="yes"/>
      <point x="527" y="91"/>
      <point x="408" y="-10"/>
      <point x="276" y="-10" type="curve" smooth="yes"/>
      <point x="144" y="-10"/>
      <point x="61" y="91"/>
    </contour>
    <contour>
      <point x="96" y="230" type="curve" smooth="yes"/>
      <point x="72" y="96"/>
      <point x="153" y="0"/>
      <point x="278" y="0" type="curve" smooth="yes"/>
      <point x="403" y="0"/>
      <point x="518" y="96"/>
      <point x="542" y="230" type="curve" smooth="yes"/>
      <point x="566" y="364"/>
      <point x="484" y="460"/>
      <point x="359" y="460" type="curve" smooth="yes"/>
      <point x="234" y="460"/>
      <point x="120" y="364"/>
    </contour>
    <contour>
      <point x="249" y="551" type="line"/>
      <point x="254" y="580"/>
      <point x="276" y="609"/>
      <point x="321" y="609" type="curve" smooth="yes"/>
      <point x="376" y="609"/>
      <point x="383" y="562"/>
      <point x="437" y="562" type="curve" smooth="yes"/>
      <point x="466" y="562"/>
      <point x="481" y="578"/>
      <point x="502" y="610" type="curve"/>
      <point x="511" y="607" type="line"/>
      <point x="488" y="570"/>
      <point x="466" y="554"/>
      <point x="436" y="554" type="curve" smooth="yes"/>
      <point x="381" y="554"/>
      <point x="367" y="601"/>
      <point x="322" y="601" type="curve" smooth="yes"/>
      <point x="281" y="601"/>
      <point x="263" y="575"/>
      <point x="259" y="550" type="curve"/>
    </contour>
  </outline>
</glyph>
<glyph name="oslash" format="1">
  <advance width="546"/>
  <unicode hex="00F8"/>
  <outline>
    <contour>
      <point x="86" y="230" type="curve" smooth="yes"/>
      <point x="111" y="369"/>
      <point x="229" y="470"/>
      <point x="361" y="470" type="curve" smooth="yes"/>
      <point x="493" y="470"/>
      <point x="577" y="369"/>
      <point x="552" y="230" type="curve" smooth="yes"/>
      <point x="527" y="91"/>
      <point x="408" y="-10"/>
      <point x="276" y="-10" type="curve" smooth="yes"/>
      <point x="144" y="-10"/>
      <point x="61" y="91"/>
    </contour>
    <contour>
      <point x="96" y="230" type="curve" smooth="yes"/>
      <point x="72" y="96"/>
      <point x="153" y="0"/>
      <point x="278" y="0" type="curve" smooth="yes"/>
      <point x="403" y="0"/>
      <point x="518" y="96"/>
      <point x="542" y="230" type="curve" smooth="yes"/>
      <point x="566" y="364"/>
      <point x="484" y="460"/>
      <point x="359" y="460" type="curve" smooth="yes"/>
      <point x="234" y="460"/>
      <point x="120" y="364"/>
    </contour>
    <contour>
      <point x="545" y="493" type="line"/>
      <point x="553" y="487" type="line"/>
      <point x="70" y="-37" type="line"/>
      <point x="63" y="-31" type="line"/>
    </contour>
  </outline>
</glyph>
<glyph name="ydieresis" format="1">
  <advance width="425"/>
  <unicode hex="00FF"/>
  <outline>
    <contour>
      <point x="496" y="460" type="line"/>
      <point x="76" y="-220" type="line"/>
      <point x="65" y="-220" type="line"/>
      <point x="214" y="20" type="line"/>
      <point x="91" y="460" type="line"/>
      <point x="103" y="460" type="line"/>
      <point x="225" y="20" type="line"/>
      <point x="214" y="20" type="line"/>
      <point x="485" y="460" type="line"/>
    </contour>
    <contour>
      <point x="381" y="561" type="curve" smooth="yes"/>
      <point x="382" y="568"/>
      <point x="387" y="572"/>
      <point x="393" y="572" type="curve" smooth="yes"/>
      <point x="399" y="572"/>
      <point x="404" y="568"/>
      <point x="403" y="561" type="curve" smooth="yes"/>
      <point x="402" y="554"/>
      <point x="395" y="550"/>
      <point x="389" y="550" type="curve" smooth="yes"/>
      <point x="383" y="550"/>
      <point x="380" y="554"/>
    </contour>
    <contour>
      <point x="221" y="561" type="curve" smooth="yes"/>
      <point x="222" y="568"/>
      <point x="227" y="572"/>
      <point x="233" y="572" type="curve" smooth="yes"/>
      <point x="239" y="572"/>
      <point x="244" y="568"/>
      <point x="243" y="561" type="curve" smooth="yes"/>
      <point x="242" y="554"/>
      <point x="235" y="550"/>
      <point x="229" y="550" type="curve" smooth="yes"/>
      <point x="223" y="550"/>
      <point x="220" y="554"/>
    </contour>
  </outline>
</glyph>
<glyph name="abreve" format="1">
  <advance width="435"/>
  <unicode hex="0103"/>
  <outline>
    <contour>
      <point x="74" y="135" type="curve" smooth="yes"/>
      <point x="57" y="37"/>
      <point x="123" y="0"/>
      <point x="193" y="0" type="curve" smooth="yes"/>
      <point x="283" y="0"/>
      <point x="368" y="74"/>
      <point x="383" y="160" type="curve"/>
      <point x="388" y="160" type="line"/>
      <point x="372" y="71"/>
      <point x="293" y="-10"/>
      <point x="191" y="-10" type="curve" smooth="yes"/>
      <point x="116" y="-10"/>
      <point x="46" y="31"/>
      <point x="64" y="135" type="curve" smooth="yes"/>
      <point x="81" y="232"/>
      <point x="180" y="281"/>
      <point x="271" y="281" type="curve" smooth="yes"/>
      <point x="349" y="281"/>
      <point x="381" y="253"/>
      <point x="399" y="235" type="curve"/>
      <point x="398" y="225" type="line"/>
      <point x="378" y="247"/>
      <point x="337" y="271"/>
      <point x="269" y="271" type="curve" smooth="yes"/>
      <point x="186" y="271"/>
      <point x="90" y="227"/>
    </contour>
    <contour>
      <point x="154" y="395" type="curve"/>
      <point x="148" y="403" type="line"/>
      <point x="186" y="434"/>
      <point x="243" y="470"/>
      <point x="316" y="470" type="curve" smooth="yes"/>
      <point x="406" y="470"/>
      <point x="437" y="409"/>
      <point x="421" y="320" type="curve" smooth="yes"/>
      <point x="365" y="0" type="line"/>
      <point x="355" y="0" type="line"/>
      <point x="411" y="320" type="line" smooth="yes"/>
      <point x="426" y="406"/>
      <point x="397" y="460"/>
      <point x="314" y="460" type="curve" smooth="yes"/>
      <point x="248" y="460"/>
      <point x="197" y="430"/>
    </contour>
    <contour>
      <point x="185" y="680" type="curve"/>
      <point x="195" y="680" type="line"/>
      <point x="183" y="614"/>
      <point x="228" y="550"/>
      <point x="320" y="550" type="curve" smooth="yes"/>
      <point x="412" y="550"/>
      <point x="479" y="614"/>
      <point x="491" y="680" type="curve"/>
      <point x="501" y="680" type="line"/>
      <point x="489" y="611"/>
      <point x="423" y="540"/>
      <point x="318" y="540" type="curve" smooth="yes"/>
      <point x="213" y="540"/>
      <point x="173" y="611"/>
    </contour>
  </outline>
</glyph>
<glyph name="dcaron" format="1">
  <advance width="570"/>
  <unicode hex="010F"/>
  <outline>
    <contour>
      <point x="589" y="780" type="line"/>
      <point x="599" y="780" type="line"/>
      <point x="461" y="0" type="line"/>
      <point x="451" y="0" type="line"/>
    </contour>
    <contour>
      <point x="86" y="230" type="curve" smooth="yes"/>
      <point x="112" y="377"/>
      <point x="221" y="470"/>
      <point x="341" y="470" type="curve" smooth="yes"/>
      <point x="464" y="470"/>
      <point x="518" y="349"/>
      <point x="497" y="230" type="curve" smooth="yes"/>
      <point x="476" y="111"/>
      <point x="379" y="-10"/>
      <point x="256" y="-10" type="curve" smooth="yes"/>
      <point x="136" y="-10"/>
      <point x="60" y="83"/>
    </contour>
    <contour>
      <point x="96" y="230" type="curve" smooth="yes"/>
      <point x="71" y="89"/>
      <point x="145" y="0"/>
      <point x="261" y="0" type="curve" smooth="yes"/>
      <point x="370" y="0"/>
      <point x="472" y="114"/>
      <point x="492" y="230" type="curve" smooth="yes"/>
      <point x="512" y="346"/>
      <point x="451" y="460"/>
      <point x="342" y="460" type="curve" smooth="yes"/>
      <point x="226" y="460"/>
      <point x="121" y="371"/>
    </contour>
    <contour>
      <point x="790" y="764" type="line"/>
      <point x="800" y="759" type="line"/>
      <point x="646" y="509" type="line"/>
      <point x="640" y="511" type="line"/>
    </contour>
  </outline>
</glyph>
<glyph name="Ecaron" format="1">
  <advance width="510"/>
  <unicode hex="011A"/>
  <outline>
    <contour>
      <point x="92" y="0" type="line"/>
      <point x="94" y="10" type="line"/>
      <point x="432" y="10" type="line"/>
      <point x="430" y="0" type="line"/>
    </contour>
    <contour>
      <point x="214" y="690" type="line"/>
      <point x="215" y="700" type="line"/>
      <point x="553" y="700" type="line"/>
      <point x="552" y="690" type="line"/>
    </contour>
    <contour>
      <point x="160" y="384" type="line"/>
      <point x="161" y="394" type="line"/>
      <point x="479" y="394" type="line"/>
      <point x="478" y="384" type="line"/>
    </contour>
    <contour>
      <point x="213" y="700" type="line"/>
      <point x="224" y="700" type="line"/>
      <point x="101" y="0" type="line"/>
      <point x="90" y="0" type="line"/>
    </contour>
    <contour>
      <point x="398" y="780" type="line"/>
      <point x="574" y="916" type="line"/>
      <point x="580" y="908" type="line"/>
      <point x="395" y="768" type="line"/>
      <point x="260" y="908" type="line"/>
      <point x="270" y="916" type="line"/>
    </contour>
  </outline>
</glyph>
<glyph name="Ibreve" format="1">
  <advance width="180"/>
  <unicode hex="012C"/>
  <outline>
    <contour>
      <point x="208" y="700" type="line"/>
      <point x="218" y="700" type="line"/>
      <point x="95" y="0" type="line"/>
      <point x="85" y="0" type="line"/>
    </contour>
    <contour>
      <point x="90" y="910" type="curve"/>
      <point x="100" y="910" type="line"/>
      <point x="88" y="844"/>
      <point x="134" y="780"/>
      <point x="226" y="780" type="curve" smooth="yes"/>
      <point x="318" y="780"/>
      <point x="384" y="844"/>
      <point x="396" y="910" type="curve"/>
      <point x="406" y="910" type="line"/>
      <point x="394" y="841"/>
      <point x="329" y="770"/>
      <point x="224" y="770" type="curve" smooth="yes"/>
      <point x="119" y="770"/>
      <point x="78" y="841"/>
    </contour>
  </outline>
</glyph>
<glyph name="Idotaccent" format="1">
  <advance width="180"/>
  <unicode hex="0130"/>
  <outline>
    <contour>
      <point x="208" y="700" type="line"/>
      <point x="218" y="700" type="line"/>
      <point x="95" y="0" type="line"/>
      <point x="85" y="0" type="line"/>
    </contour>
    <contour>
      <point x="218" y="786" type="curve" smooth="yes"/>
      <point x="219" y="793"/>
      <point x="225" y="797"/>
      <point x="231" y="797" type="curve" smooth="yes"/>
      <point x="237" y="797"/>
      <point x="241" y="793"/>
      <point x="240" y="786" type="curve" smooth="yes"/>
      <point x="239" y="779"/>
      <point x="233" y="775"/>
      <point x="227" y="775" type="curve" smooth="yes"/>
      <point x="221" y="775"/>
      <point x="217" y="779"/>
    </contour>
  </outline>
</glyph>
<glyph name="Jcircumflex" format="1">
  <advance width="197"/>
  <unicode hex="0134"/>
  <outline>
    <contour>
      <point x="-155" y="-158" type="line"/>
      <point x="-135" y="-182"/>
      <point x="-100" y="-209"/>
      <point x="-54" y="-209" type="curve" smooth="yes"/>
      <point x="35" y="-209"/>
      <point x="67" y="-166"/>
      <point x="87" y="-50" type="curve" smooth="yes"/>
      <point x="219" y="700" type="line"/>
      <point x="230" y="700" type="line"/>
      <point x="96" y="-60" type="line" smooth="yes"/>
      <point x="77" y="-169"/>
      <point x="39" y="-220"/>
      <point x="-55" y="-220" type="curve" smooth="yes"/>
      <point x="-108" y="-220"/>
      <point x="-152" y="-185"/>
      <point x="-163" y="-165" type="curve"/>
    </contour>
    <contour>
      <point x="285" y="938" type="line"/>
      <point x="109" y="803" type="line"/>
      <point x="103" y="810" type="line"/>
      <point x="288" y="950" type="line"/>
      <point x="423" y="810" type="line"/>
      <point x="415" y="803" type="line"/>
    </contour>
  </outline>
</glyph>
<glyph name="uni0136" format="1">
  <advance width="454"/>
  <unicode hex="0136"/>
  <outline>
    <contour>
      <point x="208" y="700" type="line"/>
      <point x="219" y="700" type="line"/>
      <point x="96" y="0" type="line"/>
      <point x="85" y="0" type="line"/>
    </contour>
    <contour>
      <point x="531" y="700" type="line"/>
      <point x="547" y="700" type="line"/>
      <point x="175" y="372" type="line"/>
      <point x="439" y="0" type="line"/>
      <point x="422" y="0" type="line"/>
      <point x="160" y="372" type="line"/>
    </contour>
    <contour>
      <point x="338" y="-76" type="line"/>
      <point x="348" y="-81" type="line"/>
      <point x="194" y="-331" type="line"/>
      <point x="188" y="-329" type="line"/>
    </contour>
  </outline>
</glyph>
<glyph name="uni0137" format="1">
  <advance width="372"/>
  <unicode hex="0137"/>
  <outline>
    <contour>
      <point x="218" y="780" type="line"/>
      <point x="228" y="780" type="line"/>
      <point x="90" y="0" type="line"/>
      <point x="80" y="0" type="line"/>
    </contour>
    <contour>
      <point x="409" y="460" type="line"/>
      <point x="425" y="460" type="line"/>
      <point x="150" y="270" type="line"/>
      <point x="362" y="0" type="line"/>
      <point x="348" y="0" type="line"/>
      <point x="136" y="270" type="line"/>
    </contour>
    <contour>
      <point x="273" y="-76" type="line"/>
      <point x="283" y="-81" type="line"/>
      <point x="129" y="-331" type="line"/>
      <point x="123" y="-329" type="line"/>
    </contour>
  </outline>
</glyph>
<glyph name="Lacute" format="1">
  <advance width="430"/>
  <unicode hex="0139"/>
  <outline>
    <contour>
      <point x="97" y="0" type="line"/>
      <point x="99" y="10" type="line"/>
      <point x="412" y="10" type="line"/>
      <point x="410" y="0" type="line"/>
    </contour>
    <contour>
      <point x="213" y="700" type="line"/>
      <point x="223" y="700" type="line"/>
      <point x="100" y="0" type="line"/>
      <point x="90" y="0" type="line"/>
    </contour>
    <contour>
      <point x="589" y="925" type="line"/>
      <point x="387" y="768" type="line"/>
      <point x="384" y="773" type="line"/>
      <point x="583" y="933" type="line"/>
    </contour>
  </outline>
</glyph>
<glyph name="Ldot" format="1">
  <advance width="430"/>
  <unicode hex="013F"/>
  <outline>
    <contour>
      <point x="97" y="0" type="line"/>
      <point x="99" y="10" type="line"/>
      <point x="412" y="10" type="line"/>
      <point x="410" y="0" type="line"/>
    </contour>
    <contour>
      <point x="213" y="700" type="line"/>
      <point x="223" y="700" type="line"/>
      <point x="100" y="0" type="line"/>
      <point x="90" y="0" type="line"/>
    </contour>
    <contour>
      <point x="350" y="396" type="curve" smooth="yes"/>
      <point x="351" y="403"/>
      <point x="357" y="407"/>
      <point x="363" y="407" type="curve" smooth="yes"/>
      <point x="369" y="407"/>
      <point x="373" y="403"/>
      <point x="372" y="396" type="curve" smooth="yes"/>
      <point x="371" y="389"/>
      <point x="365" y="385"/>
      <point x="359" y="385" type="curve" smooth="yes"/>
      <point x="353" y="385"/>
      <point x="349" y="389"/>
    </contour>
  </outline>
</glyph>
<glyph name="ldot" format="1">
  <advance width="370"/>
  <unicode hex="0140"/>
  <outline>
    <contour>
      <point x="223" y="780" type="line"/>
      <point x="233" y="780" type="line"/>
      <point x="95" y="0" type="line"/>
      <point x="85" y="0" type="line"/>
    </contour>
    <contour>
      <point x="300" y="396" type="curve" smooth="yes"/>
      <point x="301" y="403"/>
      <point x="307" y="407"/>
      <point x="313" y="407" type="curve" smooth="yes"/>
      <point x="319" y="407"/>
      <point x="323" y="403"/>
      <point x="322" y="396" type="curve" smooth="yes"/>
      <point x="321" y="389"/>
      <point x="315" y="385"/>
      <point x="309" y="385" type="curve" smooth="yes"/>
      <point x="303" y="385"/>
      <point x="299" y="389"/>
    </contour>
  </outline>
</glyph>
<glyph name="nacute" format="1">
  <advance width="475"/>
  <unicode hex="0144"/>
  <outline>
    <contour>
      <point x="176" y="460" type="line"/>
      <point x="95" y="0" type="line"/>
      <point x="85" y="0" type="line"/>
      <point x="166" y="460" type="line"/>
    </contour>
    <contour>
      <point x="436" y="320" type="line" smooth="yes"/>
      <point x="450" y="401"/>
      <point x="428" y="460"/>
      <point x="338" y="460" type="curve" smooth="yes"/>
      <point x="247" y="460"/>
      <point x="161" y="375"/>
      <point x="144" y="280" type="curve"/>
      <point x="139" y="280" type="line"/>
      <point x="158" y="389"/>
      <point x="245" y="470"/>
      <point x="340" y="470" type="curve" smooth="yes"/>
      <point x="435" y="470"/>
      <point x="462" y="409"/>
      <point x="446" y="320" type="curve" smooth="yes"/>
      <point x="390" y="0" type="line"/>
      <point x="380" y="0" type="line"/>
    </contour>
    <contour>
      <point x="506" y="697" type="line"/>
      <point x="305" y="540" type="line"/>
      <point x="301" y="545" type="line"/>
      <point x="499" y="705" type="line"/>
    </contour>
  </outline>
</glyph>
<glyph name="oe" format="1">
  <advance width="926"/>
  <unicode hex="0153"/>
  <outline>
    <contour>
      <point x="914" y="250" type="line" smooth="yes"/>
      <point x="933" y="356"/>
      <point x="869" y="460"/>
      <point x="749" y="460" type="curve" smooth="yes"/>
      <point x="619" y="460"/>
      <point x="519" y="348"/>
      <point x="499" y="232" type="curve"/>
      <point x="499" y="232" type="line"/>
      <point x="475" y="96"/>
      <point x="548" y="0"/>
      <point x="668" y="0" type="curve" smooth="yes"/>
      <point x="763" y="0"/>
      <point x="834" y="47"/>
      <point x="885" y="113" type="curve"/>
      <point x="892" y="106" type="line"/>
      <point x="834" y="36"/>
      <point x="765" y="-10"/>
      <point x="666" y="-10" type="curve" smooth="yes"/>
      <point x="531" y="-10"/>
      <point x="470" y="101"/>
      <point x="493" y="230" type="curve" smooth="yes"/>
      <point x="496" y="247"/>
      <point x="499" y="263"/>
      <point x="505" y="279" type="curve" smooth="yes"/>
      <point x="544" y="392"/>
      <point x="642" y="470"/>
      <point x="751" y="470" type="curve" smooth="yes"/>
      <point x="861" y="470"/>
      <point x="948" y="378"/>
      <point x="926" y="253" type="curve" smooth="yes"/>
      <point x="925" y="245"/>
      <point x="921" y="236"/>
      <point x="919" y="228" type="curve"/>
      <point x="909" y="229" type="line"/>
    </contour>
    <contour>
      <point x="495" y="228" type="line"/>
      <point x="497" y="238" type="line"/>
      <point x="921" y="238" type="line"/>
      <point x="919" y="228" type="line"/>
    </contour>
    <contour>
      <point x="86" y="230" type="curve" smooth="yes"/>
      <point x="112" y="379"/>
      <point x="221" y="470"/>
      <point x="336" y="470" type="curve" smooth="yes"/>
      <point x="441" y="470"/>
      <point x="525" y="379"/>
      <point x="499" y="230" type="curve" smooth="yes"/>
      <point x="473" y="81"/>
      <point x="356" y="-10"/>
      <point x="251" y="-10" type="curve" smooth="yes"/>
      <point x="136" y="-10"/>
      <point x="60" y="81"/>
    </contour>
    <contour>
      <point x="96" y="230" type="curve" smooth="yes"/>
      <point x="71" y="89"/>
      <point x="142" y="0"/>
      <point x="256" y="0" type="curve" smooth="yes"/>
      <point x="356" y="0"/>
      <point x="468" y="94"/>
      <point x="492" y="230" type="curve" smooth="yes"/>
      <point x="516" y="366"/>
      <point x="437" y="460"/>
      <point x="337" y="460" type="curve" smooth="yes"/>
      <point x="223" y="460"/>
      <point x="121" y="371"/>
    </contour>
  </outline>
</glyph>
<glyph name="Racute" format="1">
  <advance width="468"/>
  <unicode hex="0154"/>
  <outline>
    <contour>
      <point x="255" y="317" type="line"/>
      <point x="267" y="317" type="line"/>
      <point x="433" y="0" type="line"/>
      <point x="419" y="0" type="line"/>
    </contour>
    <contour>
      <point x="213" y="700" type="line"/>
      <point x="224" y="700" type="line"/>
      <point x="101" y="0" type="line"/>
      <point x="90" y="0" type="line"/>
    </contour>
    <contour>
      <point x="213" y="689" type="line"/>
      <point x="215" y="700" type="line"/>
      <point x="328" y="700" type="line" smooth="yes"/>
      <point x="463" y="700"/>
      <point x="553" y="636"/>
      <point x="530" y="507" type="curve" smooth="yes"/>
      <point x="507" y="378"/>
      <point x="395" y="314"/>
      <point x="260" y="314" type="curve" smooth="yes"/>
      <point x="147" y="314" type="line"/>
      <point x="149" y="324" type="line"/>
      <point x="262" y="324" type="line" smooth="yes"/>
      <point x="394" y="324"/>
      <point x="497" y="384"/>
      <point x="519" y="507" type="curve" smooth="yes"/>
      <point x="541" y="630"/>
      <point x="457" y="689"/>
      <point x="326" y="689" type="curve" smooth="yes"/>
    </contour>
    <contour>
      <point x="526" y="925" type="line"/>
      <point x="325" y="768" type="line"/>
      <point x="321" y="773" type="line"/>
      <point x="520" y="933" type="line"/>
    </contour>
  </outline>
</glyph>
<glyph name="uni0237" format="1">
  <advance width="180"/>
  <unicode hex="0237"/>
  <outline>
    <contour>
      <point x="-125" y="-165" type="line"/>
      <point x="-113" y="-185"/>
      <point x="-92" y="-210"/>
      <point x="-55" y="-210" type="curve" smooth="yes"/>
      <point x="25" y="-210"/>
      <point x="56" y="-138"/>
      <point x="66" y="-82" type="curve" smooth="yes"/>
      <point x="161" y="460" type="line"/>
      <point x="171" y="460" type="line"/>
      <point x="76" y="-82" type="line" smooth="yes"/>
      <point x="64" y="-151"/>
      <point x="27" y="-220"/>
      <point x="-57" y="-220" type="curve" smooth="yes"/>
      <point x="-100" y="-220"/>
      <point x="-122" y="-192"/>
      <point x="-133" y="-172" type="curve"/>
    </contour>
  </outline>
</glyph>
<glyph name="dotaccent" format="1">
  <advance width="242"/>
  <unicode hex="02D9"/>
  <outline>
    <contour>
      <point x="242" y="751" type="curve" smooth="yes"/>
      <point x="243" y="758"/>
      <point x="249" y="762"/>
      <point x="255" y="762" type="curve" smooth="yes"/>
      <point x="261" y="762"/>
      <point x="265" y="758"/>
      <point x="264" y="751" type="curve" smooth="yes"/>
      <point x="263" y="744"/>
      <point x="257" y="740"/>
      <point x="251" y="740" type="curve" smooth="yes"/>
      <point x="245" y="740"/>
      <point x="241" y="744"/>
    </contour>
  </outline>
</glyph>
<glyph name="ogonek" format="1">
  <advance width="250"/>
  <unicode hex="02DB"/>
  <outline>
    <contour>
      <point x="179" y="-173" type="curve"/>
      <point x="185" y="-180" type="line"/>
      <point x="166" y="-200"/>
      <point x="123" y="-220"/>
      <point x="80" y="-220" type="curve" smooth="yes"/>
      <point x="16" y="-220"/>
      <point x="-18" y="-189"/>
      <point x="-9" y="-140" type="curve"/>
      <point x="1" y="-140" type="line"/>
      <point x="-7" y="-186"/>
      <point x="32" y="-210"/>
      <point x="82" y="-210" type="curve" smooth="yes"/>
      <point x="122" y="-210"/>
      <point x="161" y="-191"/>
    </contour>
    <contour>
      <point x="1" y="-140" type="curve"/>
      <point x="-9" y="-140" type="line"/>
      <point x="3" y="-71"/>
      <point x="95" y="-26"/>
      <point x="171" y="10" type="curve"/>
      <point x="176" y="0" type="line"/>
      <point x="102" y="-32"/>
      <point x="11" y="-83"/>
    </contour>
  </outline>
</glyph>
<glyph name="pi" format="1">
  <advance width="470"/>
  <unicode hex="03C0"/>
  <outline>
    <contour>
      <point x="169" y="450" type="line"/>
      <point x="179" y="450" type="line"/>
      <point x="100" y="0" type="line"/>
      <point x="90" y="0" type="line"/>
    </contour>
    <contour>
      <point x="111" y="460" type="line"/>
      <point x="511" y="460" type="line"/>
      <point x="509" y="450" type="line"/>
      <point x="109" y="450" type="line"/>
    </contour>
    <contour>
      <point x="419" y="450" type="line"/>
      <point x="429" y="450" type="line"/>
      <point x="371" y="121" type="line" smooth="yes"/>
      <point x="354" y="25"/>
      <point x="353" y="1"/>
      <point x="403" y="1" type="curve"/>
      <point x="401" y="-9" type="line"/>
      <point x="347" y="-9"/>
      <point x="342" y="12"/>
      <point x="361" y="121" type="curve" smooth="yes"/>
    </contour>
  </outline>
</glyph>
<glyph name="guilsinglright" format="1">
  <advance width="350"/>
  <unicode hex="203A"/>
  <outline>
    <contour>
      <point x="345" y="255" type="line"/>
      <point x="355" y="255" type="line"/>
      <point x="106" y="20" type="line"/>
      <point x="100" y="27" type="line"/>
    </contour>
    <contour>
      <point x="355" y="255" type="line"/>
      <point x="345" y="255" type="line"/>
      <point x="180" y="483" type="line"/>
      <point x="188" y="490" type="line"/>
    </contour>
  </outline>
</glyph>
<glyph name="uni2074" format="1">
  <advance width="371"/>
  <unicode hex="2074"/>
  <outline>
    <contour>
      <point x="99" y="364" type="line"/>
      <point x="106" y="370" type="line"/>
      <point x="326" y="370" type="line" smooth="yes"/>
      <point x="328" y="370" type="line" smooth="yes"/>
      <point x="396" y="370" type="line"/>
      <point x="395" y="364" type="line"/>
    </contour>
    <contour>
      <point x="106" y="364" type="line"/>
      <point x="99" y="364" type="line"/>
      <point x="388" y="700" type="line"/>
      <point x="389" y="700" type="line"/>
      <point x="315" y="280" type="line"/>
      <point x="308" y="280" type="line"/>
      <point x="323" y="365" type="line" smooth="yes"/>
      <point x="324" y="368" type="line" smooth="yes"/>
      <point x="379" y="680" type="line"/>
    </contour>
  </outline>
</glyph>
<glyph name="uni2076" format="1">
  <advance width="332"/>
  <unicode hex="2076"/>
  <outline>
    <contour>
      <point x="118" y="410" type="curve" smooth="yes"/>
      <point x="105" y="334"/>
      <point x="145" y="278"/>
      <point x="220" y="278" type="curve" smooth="yes"/>
      <point x="295" y="278"/>
      <point x="355" y="334"/>
      <point x="368" y="410" type="curve" smooth="yes"/>
      <point x="380" y="480"/>
      <point x="335" y="534"/>
      <point x="272" y="534" type="curve" smooth="yes"/>
      <point x="188" y="534"/>
      <point x="129" y="474"/>
    </contour>
    <contour>
      <point x="331" y="698" type="line"/>
      <point x="339" y="698" type="line"/>
      <point x="157" y="491" type="line"/>
      <point x="157" y="491" type="line"/>
      <point x="187" y="522"/>
      <point x="228" y="540"/>
      <point x="273" y="540" type="curve" smooth="yes"/>
      <point x="341" y="540"/>
      <point x="387" y="481"/>
      <point x="374" y="410" type="curve" smooth="yes"/>
      <point x="360" y="330"/>
      <point x="300" y="272"/>
      <point x="219" y="272" type="curve" smooth="yes"/>
      <point x="138" y="272"/>
      <point x="98" y="330"/>
      <point x="112" y="410" type="curve" smooth="yes"/>
      <point x="118" y="444"/>
      <point x="143" y="483"/>
      <point x="163" y="505" type="curve" smooth="yes"/>
    </contour>
  </outline>
</glyph>
<glyph name="uni2080" format="1">
  <advance width="334"/>
  <unicode hex="2080"/>
  <outline>
    <contour>
      <point x="79" y="210" type="curve" smooth="yes"/>
      <point x="59" y="98"/>
      <point x="88" y="0"/>
      <point x="167" y="0" type="curve" smooth="yes"/>
      <point x="246" y="0"/>
      <point x="309" y="98"/>
      <point x="329" y="210" type="curve" smooth="yes"/>
      <point x="349" y="322"/>
      <point x="320" y="420"/>
      <point x="241" y="420" type="curve" smooth="yes"/>
      <point x="162" y="420"/>
      <point x="99" y="322"/>
    </contour>
    <contour>
      <point x="72" y="210" type="curve" smooth="yes"/>
      <point x="93" y="329"/>
      <point x="159" y="426"/>
      <point x="242" y="426" type="curve" smooth="yes"/>
      <point x="325" y="426"/>
      <point x="357" y="329"/>
      <point x="336" y="210" type="curve" smooth="yes"/>
      <point x="315" y="91"/>
      <point x="249" y="-6"/>
      <point x="166" y="-6" type="curve" smooth="yes"/>
      <point x="83" y="-6"/>
      <point x="51" y="91"/>
    </contour>
  </outline>
</glyph>
<glyph name="uni2081" format="1">
  <advance width="288"/>
  <unicode hex="2081"/>
  <outline>
    <contour>
      <point x="164" y="393" type="line"/>
      <point x="166" y="400" type="line"/>
      <point x="278" y="424" type="line"/>
      <point x="203" y="1" type="line"/>
      <point x="197" y="1" type="line"/>
      <point x="270" y="416" type="line"/>
    </contour>
  </outline>
</glyph>
<glyph name="uni2088" format="1">
  <advance width="302"/>
  <unicode hex="2088"/>
  <outline>
    <contour>
      <point x="104" y="325" type="curve" smooth="yes"/>
      <point x="113" y="378"/>
      <point x="166" y="426"/>
      <point x="226" y="426" type="curve" smooth="yes"/>
      <point x="286" y="426"/>
      <point x="321" y="378"/>
      <point x="312" y="325" type="curve" smooth="yes"/>
      <point x="302" y="266"/>
      <point x="241" y="221"/>
      <point x="190" y="221" type="curve" smooth="yes"/>
      <point x="139" y="221"/>
      <point x="94" y="266"/>
    </contour>
    <contour>
      <point x="110" y="325" type="curve" smooth="yes"/>
      <point x="100" y="267"/>
      <point x="149" y="225"/>
      <point x="191" y="225" type="curve" smooth="yes"/>
      <point x="233" y="225"/>
      <point x="296" y="267"/>
      <point x="306" y="325" type="curve" smooth="yes"/>
      <point x="315" y="377"/>
      <point x="282" y="420"/>
      <point x="225" y="420" type="curve" smooth="yes"/>
      <point x="168" y="420"/>
      <point x="119" y="377"/>
    </contour>
    <contour>
      <point x="55" y="111" type="curve" smooth="yes"/>
      <point x="66" y="176"/>
      <point x="130" y="223"/>
      <point x="190" y="223" type="curve" smooth="yes"/>
      <point x="250" y="223"/>
      <point x="298" y="176"/>
      <point x="287" y="111" type="curve" smooth="yes"/>
      <point x="276" y="46"/>
      <point x="225" y="-6"/>
      <point x="150" y="-6" type="curve" smooth="yes"/>
      <point x="75" y="-6"/>
      <point x="44" y="46"/>
    </contour>
    <contour>
      <point x="61" y="111" type="curve" smooth="yes"/>
      <point x="50" y="47"/>
      <point x="82" y="0"/>
      <point x="151" y="0" type="curve" smooth="yes"/>
      <point x="220" y="0"/>
      <point x="270" y="47"/>
      <point x="281" y="111" type="curve" smooth="yes"/>
      <point x="292" y="175"/>
      <point x="244" y="219"/>
      <point x="190" y="219" type="curve" smooth="yes"/>
      <point x="136" y="219"/>
      <point x="72" y="175"/>
    </contour>
  </outline>
</glyph>
<glyph name="onethird" format="1">
  <advance width="755"/>
  <unicode hex="2153"/>
  <outline>
    <contour>
      <point x="744" y="700" type="line"/>
      <point x="756" y="700" type="line"/>
      <point x="60" y="0" type="line"/>
      <point x="48" y="0" type="line"/>
    </contour>
    <contour>
      <point x="138" y="666" type="line"/>
      <point x="140" y="673" type="line"/>
      <point x="252" y="697" type="line"/>
      <point x="177" y="274" type="line"/>
      <point x="171" y="274" type="line"/>
      <point x="244" y="689" type="line"/>
    </contour>
    <contour>
      <point x="616" y="217" type="curve"/>
      <point x="617" y="222" type="line"/>
      <point x="671" y="222"/>
      <point x="748" y="258"/>
      <point x="759" y="320" type="curve" smooth="yes"/>
      <point x="768" y="370"/>
      <point x="740" y="420"/>
      <point x="673" y="420" type="curve" smooth="yes"/>
      <point x="608" y="420"/>
      <point x="559" y="377"/>
      <point x="548" y="316" type="curve"/>
      <point x="542" y="316" type="line"/>
      <point x="553" y="381"/>
      <point x="605" y="426"/>
      <point x="674" y="426" type="curve" smooth="yes"/>
      <point x="746" y="426"/>
      <point x="774" y="373"/>
      <point x="765" y="320" type="curve" smooth="yes"/>
      <point x="754" y="255"/>
      <point x="679" y="217"/>
    </contour>
    <contour>
      <point x="595" y="-6" type="curve" smooth="yes"/>
      <point x="514" y="-6"/>
      <point x="477" y="46"/>
      <point x="488" y="111" type="curve"/>
      <point x="494" y="111" type="line"/>
      <point x="483" y="47"/>
      <point x="518" y="0"/>
      <point x="596" y="0" type="curve" smooth="yes"/>
      <point x="668" y="0"/>
      <point x="723" y="44"/>
      <point x="734" y="105" type="curve" smooth="yes"/>
      <point x="747" y="180"/>
      <point x="670" y="216"/>
      <point x="616" y="216" type="curve"/>
      <point x="617" y="221" type="line"/>
      <point x="680" y="221"/>
      <point x="754" y="182"/>
      <point x="740" y="105" type="curve" smooth="yes"/>
      <point x="729" y="40"/>
      <point x="670" y="-6"/>
    </contour>
  </outline>
</glyph>
<glyph name="twothirds" format="1">
  <advance width="882"/>
  <unicode hex="2154"/>
  <outline>
    <contour>
      <point x="871" y="700" type="line"/>
      <point x="883" y="700" type="line"/>
      <point x="187" y="0" type="line"/>
      <point x="175" y="0" type="line"/>
    </contour>
    <contour>
      <point x="83" y="282" type="line"/>
      <point x="310" y="483" type="line" smooth="yes"/>
      <point x="344" y="514"/>
      <point x="378" y="544"/>
      <point x="387" y="594" type="curve" smooth="yes"/>
      <point x="395" y="641"/>
      <point x="377" y="703"/>
      <point x="299" y="703" type="curve" smooth="yes"/>
      <point x="227" y="703"/>
      <point x="170" y="643"/>
      <point x="155" y="558" type="curve"/>
      <point x="149" y="558" type="line"/>
      <point x="165" y="647"/>
      <point x="225" y="709"/>
      <point x="300" y="709" type="curve" smooth="yes"/>
      <point x="380" y="709"/>
      <point x="402" y="644"/>
      <point x="393" y="594" type="curve" smooth="yes"/>
      <point x="384" y="545"/>
      <point x="349" y="510"/>
      <point x="314" y="479" type="curve" smooth="yes"/>
      <point x="99" y="288" type="line"/>
      <point x="356" y="288" type="line"/>
      <point x="355" y="282" type="line"/>
    </contour>
    <contour>
      <point x="743" y="217" type="curve"/>
      <point x="744" y="222" type="line"/>
      <point x="798" y="222"/>
      <point x="875" y="258"/>
      <point x="886" y="320" type="curve" smooth="yes"/>
      <point x="895" y="370"/>
      <point x="867" y="420"/>
      <point x="800" y="420" type="curve" smooth="yes"/>
      <point x="735" y="420"/>
      <point x="686" y="377"/>
      <point x="675" y="316" type="curve"/>
      <point x="669" y="316" type="line"/>
      <point x="680" y="381"/>
      <point x="732" y="426"/>
      <point x="801" y="426" type="curve" smooth="yes"/>
      <point x="873" y="426"/>
      <point x="901" y="373"/>
      <point x="892" y="320" type="curve" smooth="yes"/>
      <point x="881" y="255"/>
      <point x="806" y="217"/>
    </contour>
    <contour>
      <point x="722" y="-6" type="curve" smooth="yes"/>
      <point x="641" y="-6"/>
      <point x="604" y="46"/>
      <point x="615" y="111" type="curve"/>
      <point x="621" y="111" type="line"/>
      <point x="610" y="47"/>
      <point x="645" y="0"/>
      <point x="723" y="0" type="curve" smooth="yes"/>
      <point x="795" y="0"/>
      <point x="850" y="44"/>
      <point x="861" y="105" type="curve" smooth="yes"/>
      <point x="874" y="180"/>
      <point x="797" y="216"/>
      <point x="743" y="216" type="curve"/>
      <point x="744" y="221" type="line"/>
      <point x="807" y="221"/>
      <point x="881" y="182"/>
      <point x="867" y="105" type="curve" smooth="yes"/>
      <point x="856" y="40"/>
      <point x="797" y="-6"/>
    </contour>
  </outline>
</glyph>
<glyph name="uniFF13" format="1">
  <advance width="550"/>
  <unicode hex="FF13"/>
  <outline>
    <contour>
      <point x="312" y="362" type="curve"/>
      <point x="313" y="370" type="line"/>
      <point x="403" y="370"/>
      <point x="532" y="429"/>
      <point x="550" y="533" type="curve" smooth="yes"/>
      <point x="565" y="616"/>
      <point x="517" y="700"/>
      <point x="405" y="700" type="curve" smooth="yes"/>
      <point x="296" y="700"/>
      <point x="215" y="627"/>
      <point x="197" y="526" type="curve"/>
      <point x="187" y="526" type="line"/>
      <point x="206" y="635"/>
      <point x="292" y="710"/>
      <point x="407" y="710" type="curve" smooth="yes"/>
      <point x="527" y="710"/>
      <point x="576" y="623"/>
      <point x="560" y="534" type="curve" smooth="yes"/>
      <point x="541" y="425"/>
      <point x="417" y="362"/>
    </contour>
    <contour>
      <point x="276" y="-10" type="curve" smooth="yes"/>
      <point x="141" y="-10"/>
      <point x="78" y="76"/>
      <point x="97" y="185" type="curve"/>
      <point x="107" y="185" type="line"/>
      <point x="88" y="79"/>
      <point x="148" y="0"/>
      <point x="278" y="0" type="curve" smooth="yes"/>
      <point x="398" y="0"/>
      <point x="489" y="74"/>
      <point x="507" y="175" type="curve" smooth="yes"/>
      <point x="529" y="300"/>
      <point x="401" y="360"/>
      <point x="311" y="360" type="curve"/>
      <point x="313" y="368" type="line"/>
      <point x="418" y="368"/>
      <point x="540" y="304"/>
      <point x="517" y="175" type="curve" smooth="yes"/>
      <point x="498" y="66"/>
      <point x="401" y="-10"/>
    </contour>
  </outline>
</glyph>
<glyph name="adieresis.alt" format="1">
  <advance width="541"/>
  <outline>
    <contour>
      <point x="532" y="460" type="line"/>
      <point x="542" y="460" type="line"/>
      <point x="461" y="0" type="line"/>
      <point x="451" y="0" type="line"/>
    </contour>
    <contour>
      <point x="86" y="230" type="curve" smooth="yes"/>
      <point x="112" y="377"/>
      <point x="221" y="470"/>
      <point x="341" y="470" type="curve" smooth="yes"/>
      <point x="464" y="470"/>
      <point x="518" y="349"/>
      <point x="497" y="230" type="curve" smooth="yes"/>
      <point x="476" y="111"/>
      <point x="379" y="-10"/>
      <point x="256" y="-10" type="curve" smooth="yes"/>
      <point x="136" y="-10"/>
      <point x="60" y="83"/>
    </contour>
    <contour>
      <point x="96" y="230" type="curve" smooth="yes"/>
      <point x="71" y="89"/>
      <point x="145" y="0"/>
      <point x="261" y="0" type="curve" smooth="yes"/>
      <point x="370" y="0"/>
      <point x="472" y="114"/>
      <point x="492" y="230" type="curve" smooth="yes"/>
      <point x="512" y="346"/>
      <point x="451" y="460"/>
      <point x="342" y="460" type="curve" smooth="yes"/>
      <point x="226" y="460"/>
      <point x="121" y="371"/>
    </contour>
    <contour>
      <point x="461" y="591" type="curve" smooth="yes"/>
      <point x="462" y="598"/>
      <point x="468" y="602"/>
      <point x="474" y="602" type="curve" smooth="yes"/>
      <point x="480" y="602"/>
      <point x="484" y="598"/>
      <point x="483" y="591" type="curve" smooth="yes"/>
      <point x="482" y="584"/>
      <point x="476" y="580"/>
      <point x="470" y="580" type="curve" smooth="yes"/>
      <point x="464" y="580"/>
      <point x="460" y="584"/>
    </contour>
    <contour>
      <point x="261" y="591" type="curve" smooth="yes"/>
      <point x="262" y="598"/>
      <point x="268" y="602"/>
      <point x="274" y="602" type="curve" smooth="yes"/>
      <point x="280" y="602"/>
      <point x="284" y="598"/>
      <point x="283" y="591" type="curve" smooth="yes"/>
      <point x="282" y="584"/>
      <point x="276" y="580"/>
      <point x="270" y="580" type="curve" smooth="yes"/>
      <point x="264" y="580"/>
      <point x="260" y="584"/>
    </contour>
  </outline>
</glyph>
<glyph name="aogonek.alt" format="1">
  <advance width="541"/>
  <outline>
    <contour>
      <point x="532" y="460" type="line"/>
      <point x="542" y="460" type="line"/>
      <point x="461" y="0" type="line"/>
      <point x="451" y="0" type="line"/>
    </contour>
    <contour>
      <point x="86" y="230" type="curve" smooth="yes"/>
      <point x="112" y="377"/>
      <point x="221" y="470"/>
      <point x="341" y="470" type="curve" smooth="yes"/>
      <point x="464" y="470"/>
      <point x="518" y="349"/>
      <point x="497" y="230" type="curve" smooth="yes"/>
      <point x="476" y="111"/>
      <point x="379" y="-10"/>
      <point x="256" y="-10" type="curve" smooth="yes"/>
      <point x="136" y="-10"/>
      <point x="60" y="83"/>
    </contour>
    <contour>
      <point x="96" y="230" type="curve" smooth="yes"/>
      <point x="71" y="89"/>
      <point x="145" y="0"/>
      <point x="261" y="0" type="curve" smooth="yes"/>
      <point x="370" y="0"/>
      <point x="472" y="114"/>
      <point x="492" y="230" type="curve" smooth="yes"/>
      <point x="512" y="346"/>
      <point x="451" y="460"/>
      <point x="342" y="460" type="curve" smooth="yes"/>
      <point x="226" y="460"/>
      <point x="121" y="371"/>
    </contour>
    <contour>
      <point x="464" y="-173" type="curve"/>
      <point x="470" y="-180" type="line"/>
      <point x="451" y="-200"/>
      <point x="408" y="-220"/>
      <point x="365" y="-220" type="curve" smooth="yes"/>
      <point x="301" y="-220"/>
      <point x="267" y="-189"/>
      <point x="276" y="-140" type="curve"/>
      <point x="286" y="-140" type="line"/>
      <point x="278" y="-186"/>
      <point x="317" y="-210"/>
      <point x="367" y="-210" type="curve" smooth="yes"/>
      <point x="407" y="-210"/>
      <point x="446" y="-191"/>
    </contour>
    <contour>
      <point x="286" y="-140" type="curve"/>
      <point x="276" y="-140" type="line"/>
      <point x="288" y="-71"/>
      <point x="380" y="-26"/>
      <point x="456" y="10" type="curve"/>
      <point x="461" y="0" type="line"/>
      <point x="387" y="-32"/>
      <point x="296" y="-83"/>
    </contour>
  </outline>
</glyph>
<glyph name="aring.alt" format="1">
  <advance width="541"/>
  <outline>
    <contour>
      <point x="532" y="460" type="line"/>
      <point x="542" y="460" type="line"/>
      <point x="461" y="0" type="line"/>
      <point x="451" y="0" type="line"/>
    </contour>
    <contour>
      <point x="86" y="230" type="curve" smooth="yes"/>
      <point x="112" y="377"/>
      <point x="221" y="470"/>
      <point x="341" y="470" type="curve" smooth="yes"/>
      <point x="464" y="470"/>
      <point x="518" y="349"/>
      <point x="497" y="230" type="curve" smooth="yes"/>
      <point x="476" y="111"/>
      <point x="379" y="-10"/>
      <point x="256" y="-10" type="curve" smooth="yes"/>
      <point x="136" y="-10"/>
      <point x="60" y="83"/>
    </contour>
    <contour>
      <point x="96" y="230" type="curve" smooth="yes"/>
      <point x="71" y="89"/>
      <point x="145" y="0"/>
      <point x="261" y="0" type="curve" smooth="yes"/>
      <point x="370" y="0"/>
      <point x="472" y="114"/>
      <point x="492" y="230" type="curve" smooth="yes"/>
      <point x="512" y="346"/>
      <point x="451" y="460"/>
      <point x="342" y="460" type="curve" smooth="yes"/>
      <point x="226" y="460"/>
      <point x="121" y="371"/>
    </contour>
    <contour>
      <point x="267" y="630" type="curve" smooth="yes"/>
      <point x="278" y="690"/>
      <point x="335" y="730"/>
      <point x="387" y="730" type="curve" smooth="yes"/>
      <point x="439" y="730"/>
      <point x="482" y="690"/>
      <point x="471" y="630" type="curve" smooth="yes"/>
      <point x="460" y="570"/>
      <point x="403" y="530"/>
      <point x="351" y="530" type="curve" smooth="yes"/>
      <point x="299" y="530"/>
      <point x="256" y="570"/>
    </contour>
    <contour>
      <point x="277" y="630" type="curve" smooth="yes"/>
      <point x="268" y="577"/>
      <point x="305" y="540"/>
      <point x="353" y="540" type="curve" smooth="yes"/>
      <point x="401" y="540"/>
      <point x="452" y="577"/>
      <point x="461" y="630" type="curve" smooth="yes"/>
      <point x="470" y="683"/>
      <point x="433" y="720"/>
      <point x="385" y="720" type="curve" smooth="yes"/>
      <point x="337" y="720"/>
      <point x="286" y="683"/>
    </contour>
  </outline>
</glyph>
